<?xml version="1.0" encoding="UTF-8" standalone="no"?>
<svg
   width="869.68182"
   height="341.20337"
   version="1.1"
   id="svg4"
   sodipodi:docname="logo.svg"
   inkscape:export-filename="logoo.svg"
   inkscape:export-xdpi="96"
   inkscape:export-ydpi="96"
   xmlns:inkscape="http://www.inkscape.org/namespaces/inkscape"
   xmlns:sodipodi="http://sodipodi.sourceforge.net/DTD/sodipodi-0.dtd"
   xmlns="http://www.w3.org/2000/svg"
   xmlns:svg="http://www.w3.org/2000/svg">
  <defs
     id="defs4" />
  <sodipodi:namedview
     id="namedview4"
     pagecolor="#ffffff"
     bordercolor="#000000"
     borderopacity="0.25"
     inkscape:showpageshadow="2"
     inkscape:pageopacity="0.0"
     inkscape:pagecheckerboard="0"
     inkscape:deskcolor="#d1d1d1">
    <inkscape:page
       x="0"
       y="0"
       width="869.68182"
       height="341.20337"
       id="page1"
       margin="0"
       bleed="0" />
  </sodipodi:namedview>
  <path
     fill="#fdfdfd"
     d="m 51.32787,8.0466461 42.111,0.02 c 13.927,0.017 28.456,-0.235 42.218,2.1469999 q 2.994,0.502 5.945,1.217 2.951,0.715 5.843,1.639 2.892,0.924 5.71,2.052 2.819,1.128 5.55,2.455 c 18.697,9.186 32.976,26.272 39.599,45.942 7.109,21.116 6.183,48.903004 -3.892,68.949004 -6.793,13.515 -19.291,27.219 -33.981,32.008 10.738,3.45 22.063,12.319 29.607,20.508 15.183,16.482 22.384,40.09 21.397,62.307 -1.106,24.873 -9.911,47.683 -28.348,64.666 -12.137,10.201 -25.884,16.586 -41.432,19.726 -16.232,3.278 -33.999,1.77 -50.53,1.759 -30.214,-0.018 -60.545,-0.563 -90.74629963,0.151 -0.778,-38.225 -0.1175,-76.6 -0.1069,-114.839 l -0.032,-210.1310039 c 17.03999963,-0.536 34.04019963,-0.554 51.08819963,-0.576 z m 6.86,274.5190039 32.036,0.061 c 8.963,0 18.704,0.461 27.5,-1.376 6.836,-1.428 14.372,-4.572 19.432,-9.51 0.095,-0.093 0.183,-0.193 0.275,-0.29 8.859,-8.607 11.595,-19.283 11.752,-31.395 0.155,-12.019 -3.516,-23.912 -12.108,-32.555 -19.178,-19.289 -53.961,-11.614 -78.918,-13.167 -0.199,29.342 -0.674,58.902 0.031,88.232 z m -0.102,-139.686 c 23.405,-0.333 53.497,4.627 72.89,-10.955 8.76,-8.8 11.389,-18.985 11.381,-31.17 -0.008,-10.908004 -2.393,-21.749004 -10.406,-29.660004 q -0.763,-0.753 -1.573,-1.455 -0.81,-0.701 -1.664,-1.349 -0.854,-0.648 -1.748,-1.24 -0.894,-0.591 -1.824,-1.123 -0.93,-0.533 -1.893,-1.004 -0.963,-0.471 -1.954,-0.878 -0.991,-0.408 -2.007,-0.751 -1.015,-0.343 -2.051,-0.619 c -12.299,-3.32 -44.528,-1.432 -59.233,-1.726 0.376,27.296 0.09,54.630004 0.082,81.930004 z"
     id="path1" />
  <path
     fill="#fdfdfd"
     d="m 758.57787,0.04064609 c 17.975,-0.513 37.384,3.84800001 53.207,12.40999991 23.91096,12.937 40.44796,34.938 48.14996,60.846 2.323,7.814 3.179,16.019 5.575,23.775 l 0.167,0.522 c -6.992,-0.431 -14.159,-0.155 -21.172,-0.164 l -38.64996,-0.035 c -2.352,-9.664 -5.282,-18.528 -11.663,-26.348 q -0.648,-0.786 -1.334,-1.538 -0.687,-0.752 -1.41,-1.47 -0.722,-0.717 -1.48,-1.398 -0.758,-0.68 -1.548,-1.322 -0.791,-0.642 -1.612,-1.244 -0.822,-0.602 -1.672,-1.163 -0.85,-0.56 -1.727,-1.077 -0.878,-0.518 -1.779,-0.991 -0.902,-0.473 -1.826,-0.901 -0.924,-0.428 -1.869,-0.809 -0.944,-0.381 -1.906,-0.715 -0.962,-0.334 -1.94,-0.62 -0.977,-0.286 -1.968,-0.522 -0.99,-0.237 -1.991,-0.424 -1.001,-0.188 -2.01,-0.325 -1.009,-0.137 -2.024,-0.224 c -12.492,-1.172 -24.788,1.257 -34.553,9.495 -21,17.716 -27.139,51.660004 -29.317,77.654004 -3.036,36.235 -1.751,96.782 22.945,125.671 8.208,9.601 17.89,14.494 30.521,15.331 13.053,0.864 25.59,-2.391 35.491,-11.261 17.35,-15.545 21.459,-42.326 22.725,-64.219 -17.795,-0.069 -35.824,-0.607 -53.592,0.167 0.166,-16.536 0.027,-33.084 -0.022,-49.62 q 28.32,0.188 56.64,0.084 26.36796,0.083 52.73596,-0.105 c -0.719,57.946 -0.211,116.029 0.012,173.985 l -40.67896,-0.023 c -3.908,-11.62 -7.762,-24.615 -8.737,-36.849 q -3.092,6.407 -7.429,12.046 c -13.636,17.548 -32.4,27.828 -54.399,30.42 -23.219,2.736 -48.001,-4.733 -66.288,-19.153 -32.287,-25.46 -44.165,-65.624 -48.784,-104.801 -6.336,-53.728 -4.955,-128.488004 30.282,-172.844004 16.445,-20.702 38.411,-34.6749999 64.463,-39.7449999 6.775,-1.318 13.622,-1.73100001 20.467,-2.49600001 z"
     id="path2" />
  <path
     fill="#fdfdfd"
     d="m 328.58887,0.01864609 c 22.638,-0.128 46.918,4.93300001 65.328,18.62599991 17.567,13.066 29.135,31.26 33.703,52.658 1.527,7.154 2.155,14.426 3.236,21.65 -12.253,0.526 -24.552,0.331 -36.815,0.337 -5.894,0 -12.968,0.81 -18.686,-0.429 -1.896,-2.547 -4.115,-13.191 -7.715,-18.819 q -0.506,-0.806 -1.052,-1.584 -0.546,-0.779 -1.131,-1.53 -0.585,-0.75 -1.206,-1.47 -0.622,-0.72 -1.28,-1.408 -0.657,-0.687 -1.348,-1.341 -0.692,-0.653 -1.415,-1.271 -0.724,-0.618 -1.477,-1.198 -0.754,-0.581 -1.536,-1.122 -0.782,-0.542 -1.59,-1.044 -0.809,-0.501 -1.641,-0.961 -0.833,-0.46 -1.688,-0.878 -0.855,-0.417 -1.729,-0.791 -0.875,-0.373 -1.768,-0.702 -0.892,-0.33 -1.8,-0.613 -0.909,-0.284 -1.83,-0.521 -0.921,-0.237 -1.853,-0.428 c -11.87,-2.44 -24.511,-1.462 -34.783,5.346 q -0.673,0.437 -1.323,0.908 -0.65,0.471 -1.275,0.973 -0.626,0.503 -1.225,1.036 -0.6,0.533 -1.172,1.096 -0.573,0.562 -1.116,1.153 -0.543,0.59 -1.057,1.207 -0.513,0.617 -0.994,1.259 -0.482,0.642 -0.931,1.307 -0.449,0.665 -0.864,1.352 -0.415,0.686 -0.795,1.393 -0.381,0.707 -0.725,1.431 -0.344,0.725 -0.652,1.466 -0.308,0.741 -0.578,1.497 -0.27,0.756 -0.502,1.524 -0.232,0.768 -0.426,1.547 -0.193,0.778 -0.347,1.566 c -5.92,29.952004 14.226,40.886004 38.035,51.283004 13.105,5.722 26.642,10.633 39.434,17.025 20.118,10.052 36.851,22.103 49.602,41.025 13.386,19.865 17.787,47.926 13.028,71.189 -5.007,24.473 -17.829,44.867 -38.884,58.749 -18.661,12.304 -42.369,18.7 -64.632,18.685 -3.797,0 -7.807,0.118 -11.536,-0.636 -12.658,-0.871 -25.773,-4.303 -37.481,-9.073 q -1.039,-0.423 -2.067,-0.871 -1.028,-0.448 -2.045,-0.921 -1.017,-0.473 -2.022,-0.972 -1.004,-0.498 -1.997,-1.02 -0.992,-0.523 -1.971,-1.07 -0.979,-0.547 -1.945,-1.118 -0.965,-0.571 -1.916,-1.165 -0.951,-0.595 -1.887,-1.213 -0.936,-0.617 -1.857,-1.258 -0.921,-0.641 -1.825,-1.304 -0.905,-0.663 -1.793,-1.348 -0.888,-0.685 -1.759,-1.391 -0.87,-0.707 -1.724,-1.435 -0.853,-0.728 -1.688,-1.477 -0.835,-0.749 -1.651,-1.518 -0.817,-0.769 -1.614,-1.557 -0.797,-0.789 -1.575,-1.598 -0.777,-0.808 -1.535,-1.635 -0.757,-0.827 -1.494,-1.673 -0.737,-0.845 -1.453,-1.709 -0.715,-0.863 -1.41,-1.744 -0.694,-0.881 -1.366,-1.778 -0.673,-0.898 -1.323,-1.812 -0.65,-0.914 -1.278,-1.843 -0.627,-0.93 -1.232,-1.875 -0.604,-0.944 -1.185,-1.904 -0.581,-0.959 -1.138,-1.932 -0.558,-0.974 -1.091,-1.96 -0.533,-0.987 -1.041,-1.987 -0.509,-0.999 -0.993,-2.011 -0.484,-1.012 -0.943,-2.035 -0.458,-1.024 -0.892,-2.058 c -2.725,-6.62 -9.885,-32.944 -7.185,-39.364 4.392,-1.087 13.863,-0.064 18.728,-0.024 13.229,0.108 26.42,0.243 39.64,-0.352 -0.024,2.106 -0.015,4.189 0.302,6.277 1.811,11.892 8.202,23.128 17.968,30.234 11.257,8.192 26.732,10.045 40.202,7.771 10.099,-1.705 19.186,-6.632 25.147,-15.091 7.118,-10.102 8.889,-22.865 6.718,-34.836 -1.583,-8.727 -5.656,-16.49 -12.3,-22.413 -10.159,-9.056 -24.427,-13.492 -36.838,-18.666 -18.081,-7.537 -37.218,-15.008 -53.379,-26.261 -19.906,-13.861 -34.175,-33.729 -38.383,-57.83 -4.438,-25.423004 0.438,-50.567004 15.504,-71.728004 14.585,-20.486 36.869,-33.3539999 61.417,-37.8499999 6.012,-1.101 12.128,-1.02 18.104,-2.04400001 z"
     id="path3" />
  <path
     fill="#fdfdfd"
     d="m 426.10887,8.4746461 c 20.35,-1.271 41.246,-0.323 61.659,-0.327 2.201,6.5589999 5.301,13.0509999 7.917,19.4789999 l 15.692,38.543 q 14.317,35.538004 29.041,70.909004 c 1.019,2.451 1.597,5.009 2.621,7.43 0.096,-0.579 0.213,-1.16 0.298,-1.74 0.532,-3.623 2.663,-6.965 4.024,-10.354 2.574,-6.409 4.851,-12.997 7.334,-19.452 l 24.679,-65.362004 c 4.877,-12.837 10.89,-26.078 14.468,-39.2989999 13.887,-0.342 27.832,-0.065 41.723,-0.018 6.683,0.022 13.687,0.467 20.327,-0.272 -5.221,10.3949999 -10.134,23.9719999 -14.852,35.0129999 -14.155,33.132 -27.493,66.601004 -41.855,99.645004 q -9.154,21.12 -17.965,42.385 c -2.882,6.834 -7.033,14.465 -8.705,21.678 -1.785,7.7 -0.386,30.164 -0.391,39.084 -0.019,29.16 -0.829,58.549 0.075,87.682 -19.828,-0.196 -39.783,-0.407 -59.604,0.091 0.533,-9.335 0.198,-18.826 0.195,-28.183 l -0.019,-49.747 0.058,-27.027 c 0.016,-5.453 0.531,-11.381 -0.484,-16.734 -0.886,-4.672 -3.462,-9.398 -5.263,-13.814 q -8.111,-19.74 -16.704,-39.274 l -41.471,-97.119004 c -7.589,-17.688 -15.87,-35.272 -22.798,-53.2169999 z"
     id="path4" />
</svg>
